<?xml version="1.0" encoding="UTF-8" standalone="no"?>
<!DOCTYPE svg PUBLIC "-//W3C//DTD SVG 1.1//EN"
 "http://www.w3.org/Graphics/SVG/1.1/DTD/svg11.dtd">
<!-- Generated by graphviz version 3.0.0 (20220226.1711)
 -->
<!-- Pages: 1 -->
<svg width="707pt" height="548pt"
 viewBox="0.00 0.00 706.77 548.00" xmlns="http://www.w3.org/2000/svg" xmlns:xlink="http://www.w3.org/1999/xlink">
<g id="graph0" class="graph" transform="scale(1 1) rotate(0) translate(4 544)">
<polygon fill="white" stroke="transparent" points="-4,4 -4,-544 702.77,-544 702.77,4 -4,4"/>
<!-- [root] aws_alb_listener_rule.asg (expand) -->
<g id="node1" class="node">
<title>[root] aws_alb_listener_rule.asg (expand)</title>
<polygon fill="none" stroke="black" points="379.27,-396 222.27,-396 222.27,-360 379.27,-360 379.27,-396"/>
<text text-anchor="middle" x="300.77" y="-374.3" font-family="Times,serif" font-size="14.00">aws_alb_listener_rule.asg</text>
</g>
<!-- [root] aws_lb_listener.http (expand) -->
<g id="node5" class="node">
<title>[root] aws_lb_listener.http (expand)</title>
<polygon fill="none" stroke="black" points="272.27,-324 147.27,-324 147.27,-288 272.27,-288 272.27,-324"/>
<text text-anchor="middle" x="209.77" y="-302.3" font-family="Times,serif" font-size="14.00">aws_lb_listener.http</text>
</g>
<!-- [root] aws_alb_listener_rule.asg (expand)&#45;&gt;[root] aws_lb_listener.http (expand) -->
<g id="edge1" class="edge">
<title>[root] aws_alb_listener_rule.asg (expand)&#45;&gt;[root] aws_lb_listener.http (expand)</title>
<path fill="none" stroke="black" d="M278.27,-359.7C266.81,-350.88 252.71,-340.03 240.28,-330.47"/>
<polygon fill="black" stroke="black" points="242.06,-327.43 232,-324.1 237.8,-332.98 242.06,-327.43"/>
</g>
<!-- [root] aws_lb_target_group.asg (expand) -->
<g id="node6" class="node">
<title>[root] aws_lb_target_group.asg (expand)</title>
<polygon fill="none" stroke="black" points="470.77,-180 318.77,-180 318.77,-144 470.77,-144 470.77,-180"/>
<text text-anchor="middle" x="394.77" y="-158.3" font-family="Times,serif" font-size="14.00">aws_lb_target_group.asg</text>
</g>
<!-- [root] aws_alb_listener_rule.asg (expand)&#45;&gt;[root] aws_lb_target_group.asg (expand) -->
<g id="edge2" class="edge">
<title>[root] aws_alb_listener_rule.asg (expand)&#45;&gt;[root] aws_lb_target_group.asg (expand)</title>
<path fill="none" stroke="black" d="M298.46,-359.58C295.21,-328.38 292.43,-261.96 319.77,-216 327.05,-203.76 338.38,-193.61 350.05,-185.58"/>
<polygon fill="black" stroke="black" points="352.03,-188.46 358.55,-180.11 348.24,-182.58 352.03,-188.46"/>
</g>
<!-- [root] aws_autoscaling_group.example (expand) -->
<g id="node2" class="node">
<title>[root] aws_autoscaling_group.example (expand)</title>
<polygon fill="none" stroke="black" points="522.77,-252 328.77,-252 328.77,-216 522.77,-216 522.77,-252"/>
<text text-anchor="middle" x="425.77" y="-230.3" font-family="Times,serif" font-size="14.00">aws_autoscaling_group.example</text>
</g>
<!-- [root] aws_launch_configuration.example (expand) -->
<g id="node3" class="node">
<title>[root] aws_launch_configuration.example (expand)</title>
<polygon fill="none" stroke="black" points="698.77,-180 488.77,-180 488.77,-144 698.77,-144 698.77,-180"/>
<text text-anchor="middle" x="593.77" y="-158.3" font-family="Times,serif" font-size="14.00">aws_launch_configuration.example</text>
</g>
<!-- [root] aws_autoscaling_group.example (expand)&#45;&gt;[root] aws_launch_configuration.example (expand) -->
<g id="edge3" class="edge">
<title>[root] aws_autoscaling_group.example (expand)&#45;&gt;[root] aws_launch_configuration.example (expand)</title>
<path fill="none" stroke="black" d="M466.87,-215.88C489.93,-206.26 518.9,-194.19 543.34,-184.01"/>
<polygon fill="black" stroke="black" points="544.92,-187.15 552.8,-180.07 542.23,-180.68 544.92,-187.15"/>
</g>
<!-- [root] aws_autoscaling_group.example (expand)&#45;&gt;[root] aws_lb_target_group.asg (expand) -->
<g id="edge4" class="edge">
<title>[root] aws_autoscaling_group.example (expand)&#45;&gt;[root] aws_lb_target_group.asg (expand)</title>
<path fill="none" stroke="black" d="M418.11,-215.7C414.58,-207.73 410.31,-198.1 406.4,-189.26"/>
<polygon fill="black" stroke="black" points="409.59,-187.83 402.34,-180.1 403.19,-190.67 409.59,-187.83"/>
</g>
<!-- [root] data.aws_subnets.default (expand) -->
<g id="node9" class="node">
<title>[root] data.aws_subnets.default (expand)</title>
<polygon fill="none" stroke="black" points="300.77,-180 148.77,-180 148.77,-144 300.77,-144 300.77,-180"/>
<text text-anchor="middle" x="224.77" y="-158.3" font-family="Times,serif" font-size="14.00">data.aws_subnets.default</text>
</g>
<!-- [root] aws_autoscaling_group.example (expand)&#45;&gt;[root] data.aws_subnets.default (expand) -->
<g id="edge5" class="edge">
<title>[root] aws_autoscaling_group.example (expand)&#45;&gt;[root] data.aws_subnets.default (expand)</title>
<path fill="none" stroke="black" d="M376.86,-215.97C348.77,-206.19 313.31,-193.84 283.7,-183.52"/>
<polygon fill="black" stroke="black" points="284.5,-180.09 273.9,-180.11 282.19,-186.71 284.5,-180.09"/>
</g>
<!-- [root] aws_security_group.instance (expand) -->
<g id="node8" class="node">
<title>[root] aws_security_group.instance (expand)</title>
<polygon fill="none" stroke="black" points="659.27,-108 486.27,-108 486.27,-72 659.27,-72 659.27,-108"/>
<text text-anchor="middle" x="572.77" y="-86.3" font-family="Times,serif" font-size="14.00">aws_security_group.instance</text>
</g>
<!-- [root] aws_launch_configuration.example (expand)&#45;&gt;[root] aws_security_group.instance (expand) -->
<g id="edge6" class="edge">
<title>[root] aws_launch_configuration.example (expand)&#45;&gt;[root] aws_security_group.instance (expand)</title>
<path fill="none" stroke="black" d="M588.58,-143.7C586.24,-135.9 583.42,-126.51 580.82,-117.83"/>
<polygon fill="black" stroke="black" points="584.13,-116.68 577.9,-108.1 577.42,-118.69 584.13,-116.68"/>
</g>
<!-- [root] aws_lb.example (expand) -->
<g id="node4" class="node">
<title>[root] aws_lb.example (expand)</title>
<polygon fill="none" stroke="black" points="202.27,-252 97.27,-252 97.27,-216 202.27,-216 202.27,-252"/>
<text text-anchor="middle" x="149.77" y="-230.3" font-family="Times,serif" font-size="14.00">aws_lb.example</text>
</g>
<!-- [root] aws_security_group.alb (expand) -->
<g id="node7" class="node">
<title>[root] aws_security_group.alb (expand)</title>
<polygon fill="none" stroke="black" points="193.77,-108 47.77,-108 47.77,-72 193.77,-72 193.77,-108"/>
<text text-anchor="middle" x="120.77" y="-86.3" font-family="Times,serif" font-size="14.00">aws_security_group.alb</text>
</g>
<!-- [root] aws_lb.example (expand)&#45;&gt;[root] aws_security_group.alb (expand) -->
<g id="edge7" class="edge">
<title>[root] aws_lb.example (expand)&#45;&gt;[root] aws_security_group.alb (expand)</title>
<path fill="none" stroke="black" d="M146.27,-215.87C141.31,-191.56 132.17,-146.82 126.29,-118.01"/>
<polygon fill="black" stroke="black" points="129.71,-117.29 124.28,-108.19 122.85,-118.69 129.71,-117.29"/>
</g>
<!-- [root] aws_lb.example (expand)&#45;&gt;[root] data.aws_subnets.default (expand) -->
<g id="edge8" class="edge">
<title>[root] aws_lb.example (expand)&#45;&gt;[root] data.aws_subnets.default (expand)</title>
<path fill="none" stroke="black" d="M168.31,-215.7C177.57,-207.05 188.93,-196.45 199.02,-187.03"/>
<polygon fill="black" stroke="black" points="201.52,-189.49 206.44,-180.1 196.74,-184.37 201.52,-189.49"/>
</g>
<!-- [root] aws_lb_listener.http (expand)&#45;&gt;[root] aws_lb.example (expand) -->
<g id="edge9" class="edge">
<title>[root] aws_lb_listener.http (expand)&#45;&gt;[root] aws_lb.example (expand)</title>
<path fill="none" stroke="black" d="M194.94,-287.7C187.74,-279.3 178.97,-269.07 171.08,-259.86"/>
<polygon fill="black" stroke="black" points="173.59,-257.42 164.43,-252.1 168.28,-261.97 173.59,-257.42"/>
</g>
<!-- [root] data.aws_vpc.default (expand) -->
<g id="node10" class="node">
<title>[root] data.aws_vpc.default (expand)</title>
<polygon fill="none" stroke="black" points="343.27,-108 212.27,-108 212.27,-72 343.27,-72 343.27,-108"/>
<text text-anchor="middle" x="277.77" y="-86.3" font-family="Times,serif" font-size="14.00">data.aws_vpc.default</text>
</g>
<!-- [root] aws_lb_target_group.asg (expand)&#45;&gt;[root] data.aws_vpc.default (expand) -->
<g id="edge10" class="edge">
<title>[root] aws_lb_target_group.asg (expand)&#45;&gt;[root] data.aws_vpc.default (expand)</title>
<path fill="none" stroke="black" d="M366.15,-143.88C350.85,-134.72 331.83,-123.34 315.35,-113.48"/>
<polygon fill="black" stroke="black" points="316.88,-110.32 306.5,-108.19 313.28,-116.33 316.88,-110.32"/>
</g>
<!-- [root] var.server_port -->
<g id="node13" class="node">
<title>[root] var.server_port</title>
<polygon fill="none" stroke="black" points="615.77,-36 523.77,-36 523.77,0 621.77,0 621.77,-30 615.77,-36"/>
<polyline fill="none" stroke="black" points="615.77,-36 615.77,-30 "/>
<polyline fill="none" stroke="black" points="621.77,-30 615.77,-30 "/>
<text text-anchor="middle" x="572.77" y="-14.3" font-family="Times,serif" font-size="14.00">var.server_port</text>
</g>
<!-- [root] aws_lb_target_group.asg (expand)&#45;&gt;[root] var.server_port -->
<g id="edge11" class="edge">
<title>[root] aws_lb_target_group.asg (expand)&#45;&gt;[root] var.server_port</title>
<path fill="none" stroke="black" d="M408.09,-143.75C423.46,-124.63 450.16,-93.63 477.77,-72 492.68,-60.32 510.49,-49.65 526.64,-41"/>
<polygon fill="black" stroke="black" points="528.69,-43.88 535.93,-36.15 525.44,-37.68 528.69,-43.88"/>
</g>
<!-- [root] provider[&quot;registry.terraform.io/hashicorp/aws&quot;] -->
<g id="node12" class="node">
<title>[root] provider[&quot;registry.terraform.io/hashicorp/aws&quot;]</title>
<polygon fill="none" stroke="black" points="252.77,-36 0.23,-18 252.77,0 505.3,-18 252.77,-36"/>
<text text-anchor="middle" x="252.77" y="-14.3" font-family="Times,serif" font-size="14.00">provider[&quot;registry.terraform.io/hashicorp/aws&quot;]</text>
</g>
<!-- [root] aws_security_group.alb (expand)&#45;&gt;[root] provider[&quot;registry.terraform.io/hashicorp/aws&quot;] -->
<g id="edge12" class="edge">
<title>[root] aws_security_group.alb (expand)&#45;&gt;[root] provider[&quot;registry.terraform.io/hashicorp/aws&quot;]</title>
<path fill="none" stroke="black" d="M153.06,-71.88C171.9,-61.88 195.76,-49.23 215.41,-38.81"/>
<polygon fill="black" stroke="black" points="217.2,-41.82 224.4,-34.05 213.92,-35.64 217.2,-41.82"/>
</g>
<!-- [root] aws_security_group.instance (expand)&#45;&gt;[root] provider[&quot;registry.terraform.io/hashicorp/aws&quot;] -->
<g id="edge13" class="edge">
<title>[root] aws_security_group.instance (expand)&#45;&gt;[root] provider[&quot;registry.terraform.io/hashicorp/aws&quot;]</title>
<path fill="none" stroke="black" d="M494.9,-71.97C441.91,-60.37 372.44,-45.18 321.51,-34.04"/>
<polygon fill="black" stroke="black" points="322.09,-30.58 311.58,-31.86 320.6,-37.42 322.09,-30.58"/>
</g>
<!-- [root] aws_security_group.instance (expand)&#45;&gt;[root] var.server_port -->
<g id="edge14" class="edge">
<title>[root] aws_security_group.instance (expand)&#45;&gt;[root] var.server_port</title>
<path fill="none" stroke="black" d="M572.77,-71.7C572.77,-63.98 572.77,-54.71 572.77,-46.11"/>
<polygon fill="black" stroke="black" points="576.27,-46.1 572.77,-36.1 569.27,-46.1 576.27,-46.1"/>
</g>
<!-- [root] data.aws_subnets.default (expand)&#45;&gt;[root] data.aws_vpc.default (expand) -->
<g id="edge15" class="edge">
<title>[root] data.aws_subnets.default (expand)&#45;&gt;[root] data.aws_vpc.default (expand)</title>
<path fill="none" stroke="black" d="M237.87,-143.7C244.16,-135.39 251.82,-125.28 258.73,-116.14"/>
<polygon fill="black" stroke="black" points="261.57,-118.19 264.82,-108.1 255.99,-113.96 261.57,-118.19"/>
</g>
<!-- [root] data.aws_vpc.default (expand)&#45;&gt;[root] provider[&quot;registry.terraform.io/hashicorp/aws&quot;] -->
<g id="edge16" class="edge">
<title>[root] data.aws_vpc.default (expand)&#45;&gt;[root] provider[&quot;registry.terraform.io/hashicorp/aws&quot;]</title>
<path fill="none" stroke="black" d="M271.59,-71.7C268.73,-63.7 265.28,-54.02 262.11,-45.15"/>
<polygon fill="black" stroke="black" points="265.36,-43.86 258.7,-35.62 258.77,-46.22 265.36,-43.86"/>
</g>
<!-- [root] output.alb_dns_name -->
<g id="node11" class="node">
<title>[root] output.alb_dns_name</title>
<polygon fill="none" stroke="black" points="179.77,-396 51.77,-396 51.77,-360 185.77,-360 185.77,-390 179.77,-396"/>
<polyline fill="none" stroke="black" points="179.77,-396 179.77,-390 "/>
<polyline fill="none" stroke="black" points="185.77,-390 179.77,-390 "/>
<text text-anchor="middle" x="118.77" y="-374.3" font-family="Times,serif" font-size="14.00">output.alb_dns_name</text>
</g>
<!-- [root] output.alb_dns_name&#45;&gt;[root] aws_lb.example (expand) -->
<g id="edge17" class="edge">
<title>[root] output.alb_dns_name&#45;&gt;[root] aws_lb.example (expand)</title>
<path fill="none" stroke="black" d="M122.35,-359.92C126.12,-342 132.27,-313 137.77,-288 139.62,-279.58 141.68,-270.41 143.56,-262.11"/>
<polygon fill="black" stroke="black" points="147.02,-262.7 145.82,-252.17 140.19,-261.15 147.02,-262.7"/>
</g>
<!-- [root] provider[&quot;registry.terraform.io/hashicorp/aws&quot;] (close) -->
<g id="node14" class="node">
<title>[root] provider[&quot;registry.terraform.io/hashicorp/aws&quot;] (close)</title>
<ellipse fill="none" stroke="black" cx="373.77" cy="-450" rx="227.46" ry="18"/>
<text text-anchor="middle" x="373.77" y="-446.3" font-family="Times,serif" font-size="14.00">[root] provider[&quot;registry.terraform.io/hashicorp/aws&quot;] (close)</text>
</g>
<!-- [root] provider[&quot;registry.terraform.io/hashicorp/aws&quot;] (close)&#45;&gt;[root] aws_alb_listener_rule.asg (expand) -->
<g id="edge18" class="edge">
<title>[root] provider[&quot;registry.terraform.io/hashicorp/aws&quot;] (close)&#45;&gt;[root] aws_alb_listener_rule.asg (expand)</title>
<path fill="none" stroke="black" d="M355.72,-431.7C346.71,-423.05 335.65,-412.45 325.83,-403.03"/>
<polygon fill="black" stroke="black" points="328.25,-400.5 318.61,-396.1 323.4,-405.55 328.25,-400.5"/>
</g>
<!-- [root] provider[&quot;registry.terraform.io/hashicorp/aws&quot;] (close)&#45;&gt;[root] aws_autoscaling_group.example (expand) -->
<g id="edge19" class="edge">
<title>[root] provider[&quot;registry.terraform.io/hashicorp/aws&quot;] (close)&#45;&gt;[root] aws_autoscaling_group.example (expand)</title>
<path fill="none" stroke="black" d="M378.85,-431.87C381.86,-421.52 385.68,-408.04 388.77,-396 400.73,-349.32 412.93,-294.57 419.9,-262.44"/>
<polygon fill="black" stroke="black" points="423.36,-262.97 422.05,-252.46 416.52,-261.5 423.36,-262.97"/>
</g>
<!-- [root] root -->
<g id="node15" class="node">
<title>[root] root</title>
<ellipse fill="none" stroke="black" cx="245.77" cy="-522" rx="47.39" ry="18"/>
<text text-anchor="middle" x="245.77" y="-518.3" font-family="Times,serif" font-size="14.00">[root] root</text>
</g>
<!-- [root] root&#45;&gt;[root] output.alb_dns_name -->
<g id="edge20" class="edge">
<title>[root] root&#45;&gt;[root] output.alb_dns_name</title>
<path fill="none" stroke="black" d="M207.29,-511.4C183.77,-503.55 154.98,-490.07 137.77,-468 124.14,-450.53 119.74,-425.49 118.55,-406.41"/>
<polygon fill="black" stroke="black" points="122.04,-406.11 118.18,-396.25 115.05,-406.37 122.04,-406.11"/>
</g>
<!-- [root] root&#45;&gt;[root] provider[&quot;registry.terraform.io/hashicorp/aws&quot;] (close) -->
<g id="edge21" class="edge">
<title>[root] root&#45;&gt;[root] provider[&quot;registry.terraform.io/hashicorp/aws&quot;] (close)</title>
<path fill="none" stroke="black" d="M271.67,-506.83C289.54,-497.06 313.63,-483.89 333.92,-472.79"/>
<polygon fill="black" stroke="black" points="335.85,-475.73 342.94,-467.86 332.49,-469.59 335.85,-475.73"/>
</g>
</g>
</svg>
